<?xml version="1.0" encoding="UTF-8" standalone="no"?>
<!DOCTYPE svg PUBLIC "-//W3C//DTD SVG 1.1//EN"
 "http://www.w3.org/Graphics/SVG/1.1/DTD/svg11.dtd">
<!-- Generated by graphviz version 2.40.1 (20161225.0304)
 -->
<!-- Title: A Pages: 1 -->
<svg width="454pt" height="264pt"
 viewBox="0.00 0.00 454.00 264.00" xmlns="http://www.w3.org/2000/svg" xmlns:xlink="http://www.w3.org/1999/xlink">
<g id="graph0" class="graph" transform="scale(1 1) rotate(0) translate(4 260)">
<title>A</title>
<polygon fill="#eeeeee" stroke="transparent" points="-4,4 -4,-260 450,-260 450,4 -4,4"/>
<!-- start -->
<g id="node1" class="node">
<title>start</title>
<path fill="#ffee88" stroke="#444444" d="M238,-256C238,-256 208,-256 208,-256 202,-256 196,-250 196,-244 196,-244 196,-232 196,-232 196,-226 202,-220 208,-220 208,-220 238,-220 238,-220 244,-220 250,-226 250,-232 250,-232 250,-244 250,-244 250,-250 244,-256 238,-256"/>
<text text-anchor="middle" x="223" y="-234.3" font-family="Lato" font-size="14.00" fill="#000000">Start</text>
</g>
<!-- processFetchMailchimp -->
<g id="node2" class="node">
<title>processFetchMailchimp</title>
<polygon fill="#ffffff" stroke="#444444" points="384,-184 62,-184 62,-146 384,-146 384,-184"/>
<text text-anchor="middle" x="223" y="-168.8" font-family="Lato" font-size="14.00" fill="#000000">Fetch Mailchimp data for list</text>
<text text-anchor="middle" x="223" y="-153.8" font-family="Lato" font-size="14.00" fill="#000000">Update existing/create new based on email hash</text>
</g>
<!-- start&#45;&gt;processFetchMailchimp -->
<g id="edge1" class="edge">
<title>start&#45;&gt;processFetchMailchimp</title>
<path fill="none" stroke="#000000" d="M223,-219.9551C223,-212.2107 223,-202.9622 223,-194.2811"/>
<polygon fill="#000000" stroke="#000000" points="226.5001,-194.1128 223,-184.1128 219.5001,-194.1129 226.5001,-194.1128"/>
</g>
<!-- process2 -->
<g id="node3" class="node">
<title>process2</title>
<polygon fill="#ffffff" stroke="#444444" points="446,-110 0,-110 0,-72 446,-72 446,-110"/>
<text text-anchor="middle" x="223" y="-94.8" font-family="Lato" font-size="14.00" fill="#000000">check pre&#45;existing contact_ids</text>
<text text-anchor="middle" x="223" y="-79.8" font-family="Lato" font-size="14.00" fill="#000000">set them NULL if they belong to deleted contacts or no longer exist.</text>
</g>
<!-- processFetchMailchimp&#45;&gt;process2 -->
<g id="edge2" class="edge">
<title>processFetchMailchimp&#45;&gt;process2</title>
<path fill="none" stroke="#000000" d="M223,-145.9432C223,-138.1493 223,-128.9538 223,-120.3381"/>
<polygon fill="#000000" stroke="#000000" points="226.5001,-120.2494 223,-110.2495 219.5001,-120.2495 226.5001,-120.2494"/>
</g>
<!-- process3 -->
<g id="node4" class="node">
<title>process3</title>
<polygon fill="#ffffff" stroke="#444444" points="348.5,-36 97.5,-36 97.5,0 348.5,0 348.5,-36"/>
<text text-anchor="middle" x="223" y="-14.3" font-family="Lato" font-size="14.00" fill="#000000">populate missing contactID by emails</text>
</g>
<!-- process2&#45;&gt;process3 -->
<g id="edge3" class="edge">
<title>process2&#45;&gt;process3</title>
<path fill="none" stroke="#000000" d="M223,-71.8201C223,-64.0975 223,-55.0282 223,-46.5585"/>
<polygon fill="#000000" stroke="#000000" points="226.5001,-46.2973 223,-36.2973 219.5001,-46.2974 226.5001,-46.2973"/>
</g>
</g>
</svg>
